{
  "version": "1.1.6",
  "modules": [
    {
      "id": 1,
      "plugin": "Core",
      "version": "1.1.6",
      "model": "AudioInterface",
      "params": [],
      "leftModuleId": 2,
      "data": {
        "audio": {
          "driver": 8,
          "deviceName": "Realtek HD Audio 2nd output (Realtek(R) Audio)",
          "offset": 0,
          "maxChannels": 8,
          "sampleRate": 44100,
          "blockSize": 256
        }
      },
      "pos": [
        48,
        1
      ]
    },
    {
      "id": 2,
      "plugin": "Fundamental",
      "version": "1.4.0",
      "model": "VCMixer",
      "params": [
        {
          "id": 0,
          "value": 1.41253757
        },
        {
          "id": 1,
          "value": 0.0
        },
        {
          "id": 2,
          "value": 1.0
        },
        {
          "id": 3,
          "value": 1.0
        },
        {
          "id": 4,
          "value": 1.0
        }
      ],
      "leftModuleId": 15,
      "rightModuleId": 1,
      "pos": [
        38,
        1
      ]
    },
    {
      "id": 3,
      "plugin": "Fundamental",
      "version": "1.4.0",
      "model": "VCO",
      "params": [
        {
          "id": 0,
          "value": 1.0
        },
        {
          "id": 1,
          "value": 1.0
        },
        {
          "id": 2,
          "value": 0.0
        },
        {
          "id": 3,
          "value": 0.0
        },
        {
          "id": 4,
          "value": 0.872500122
        },
        {
          "id": 5,
          "value": 0.5
        },
        {
          "id": 6,
          "value": 0.0
        }
      ],
      "rightModuleId": 4,
      "pos": [
        0,
        1
      ]
    },
    {
      "id": 4,
      "plugin": "Fundamental",
      "version": "1.4.0",
      "model": "VCF",
      "params": [
        {
          "id": 0,
          "value": 0.0
        },
        {
          "id": 1,
          "value": 0.5
        },
        {
          "id": 2,
          "value": 0.0
        },
        {
          "id": 3,
          "value": 1.0
        },
        {
          "id": 4,
          "value": 0.0
        }
      ],
      "leftModuleId": 3,
      "rightModuleId": 6,
      "pos": [
        10,
        1
      ]
    },
    {
      "id": 6,
      "plugin": "Fundamental",
      "version": "1.4.0",
      "model": "ADSR",
      "params": [
        {
          "id": 0,
          "value": 0.0
        },
        {
          "id": 1,
          "value": 0.582000494
        },
        {
          "id": 2,
          "value": 0.43200013
        },
        {
          "id": 3,
          "value": 1.0
        }
      ],
      "leftModuleId": 4,
      "rightModuleId": 15,
      "pos": [
        18,
        1
      ]
    },
    {
      "id": 15,
      "plugin": "Axioma",
      "version": "1.0.0",
      "model": "Ikeda",
      "params": [
        {
          "id": 0,
          "value": 0.600000024
        },
        {
          "id": 1,
          "value": 0.913000107
        },
        {
          "id": 2,
          "value": -0.571999729
        },
        {
          "id": 3,
          "value": 5.0
        },
        {
          "id": 4,
          "value": 1.75999618
        }
      ],
      "leftModuleId": 6,
      "rightModuleId": 2,
      "pos": [
        26,
        1
      ]
    },
    {
      "id": 16,
      "plugin": "Fundamental",
      "version": "1.4.0",
      "model": "LFO",
      "params": [
        {
          "id": 0,
          "value": 1.0
        },
        {
          "id": 1,
          "value": 1.0
        },
        {
          "id": 2,
          "value": -1.19600105
        },
        {
          "id": 3,
          "value": 0.0
        },
        {
          "id": 4,
          "value": 0.0
        },
        {
          "id": 5,
          "value": 0.5
        },
        {
          "id": 6,
          "value": 0.0
        }
      ],
      "leftModuleId": 18,
      "rightModuleId": 22,
      "pos": [
        22,
        0
      ]
    },
    {
      "id": 18,
      "plugin": "Fundamental",
      "version": "1.4.0",
      "model": "SEQ3",
      "params": [
        {
          "id": 0,
          "value": 2.38000059
        },
        {
          "id": 1,
          "value": 0.0
        },
        {
          "id": 2,
          "value": 0.0
        },
        {
          "id": 3,
          "value": 8.0
        },
        {
          "id": 4,
          "value": 3.65999985
        },
        {
          "id": 5,
          "value": 10.0
        },
        {
          "id": 6,
          "value": 5.71500015
        },
        {
          "id": 7,
          "value": 2.86500001
        },
        {
          "id": 8,
          "value": 7.75499916
        },
        {
          "id": 9,
          "value": 6.91500139
        },
        {
          "id": 10,
          "value": 6.73500013
        },
        {
          "id": 11,
          "value": 8.13000011
        },
        {
          "id": 12,
          "value": 0.0
        },
        {
          "id": 13,
          "value": 0.0
        },
        {
          "id": 14,
          "value": 2.47500038
        },
        {
          "id": 15,
          "value": 0.0
        },
        {
          "id": 16,
          "value": 2.59499979
        },
        {
          "id": 17,
          "value": 6.6150012
        },
        {
          "id": 18,
          "value": 0.854999959
        },
        {
          "id": 19,
          "value": 1.84500015
        },
        {
          "id": 20,
          "value": 0.0
        },
        {
          "id": 21,
          "value": 0.0300000012
        },
        {
          "id": 22,
          "value": 0.0150000006
        },
        {
          "id": 23,
          "value": 0.0
        },
        {
          "id": 24,
          "value": 0.0
        },
        {
          "id": 25,
          "value": 0.0
        },
        {
          "id": 26,
          "value": 0.0
        },
        {
          "id": 27,
          "value": 0.0
        },
        {
          "id": 28,
          "value": 0.0
        },
        {
          "id": 29,
          "value": 0.0
        },
        {
          "id": 30,
          "value": 0.0
        },
        {
          "id": 31,
          "value": 0.0
        },
        {
          "id": 32,
          "value": 0.0
        },
        {
          "id": 33,
          "value": 0.0
        },
        {
          "id": 34,
          "value": 0.0
        },
        {
          "id": 35,
          "value": 0.0
        }
      ],
      "rightModuleId": 16,
      "data": {
        "running": true,
        "gates": [
          1,
          1,
          1,
          1,
          1,
          1,
          1,
          1
        ]
      },
      "pos": [
        0,
        0
      ]
    },
    {
      "id": 21,
      "plugin": "Fundamental",
      "version": "1.4.0",
      "model": "VCMixer",
      "params": [
        {
          "id": 0,
          "value": 0.636999726
        },
        {
          "id": 1,
          "value": 0.521844447
        },
        {
          "id": 2,
          "value": 0.292742163
        },
        {
          "id": 3,
          "value": 1.0
        },
        {
          "id": 4,
          "value": 1.0
        }
      ],
      "leftModuleId": 22,
      "rightModuleId": 23,
      "pos": [
        42,
        0
      ]
    },
    {
      "id": 22,
      "plugin": "Fundamental",
      "version": "1.4.0",
      "model": "LFO",
      "params": [
        {
          "id": 0,
          "value": 1.0
        },
        {
          "id": 1,
          "value": 1.0
        },
        {
          "id": 2,
          "value": -4.00400019
        },
        {
          "id": 3,
          "value": 0.0
        },
        {
          "id": 4,
          "value": 0.0
        },
        {
          "id": 5,
          "value": 0.5
        },
        {
          "id": 6,
          "value": 0.0
        }
      ],
      "leftModuleId": 16,
      "rightModuleId": 21,
      "pos": [
        32,
        0
      ]
    },
    {
      "id": 23,
      "plugin": "VCV-Recorder",
      "version": "1.1.0",
      "model": "Recorder",
      "params": [
        {
          "id": 0,
          "value": 1.0
        },
        {
          "id": 1,
          "value": 0.0
        }
      ],
      "leftModuleId": 21,
      "data": {
        "format": "ffv1",
        "path": "C:\\Users\\kauew\\Desktop/ikeda0.avi",
        "incrementPath": true,
        "sampleRate": 44100,
        "depth": 16,
        "bitRate": 256000,
        "videoBitRate": 2048000
      },
      "pos": [
        52,
        0
      ]
    }
  ],
  "cables": [
    {
      "id": 231,
      "outputModuleId": 2,
      "outputId": 0,
      "inputModuleId": 1,
      "inputId": 0,
      "color": "#0986ad"
    },
    {
      "id": 232,
      "outputModuleId": 2,
      "outputId": 0,
      "inputModuleId": 1,
      "inputId": 1,
      "color": "#c9b70e"
    },
    {
      "id": 235,
      "outputModuleId": 6,
      "outputId": 0,
      "inputModuleId": 2,
      "inputId": 5,
      "color": "#0c8e15"
    },
    {
      "id": 236,
      "outputModuleId": 4,
      "outputId": 0,
      "inputModuleId": 2,
      "inputId": 1,
      "color": "#0986ad"
    },
    {
      "id": 242,
      "outputModuleId": 15,
      "outputId": 0,
      "inputModuleId": 3,
      "inputId": 0,
      "color": "#0986ad"
    },
    {
      "id": 233,
      "outputModuleId": 6,
      "outputId": 0,
      "inputModuleId": 4,
      "inputId": 0,
      "color": "#c91847"
    },
    {
      "id": 244,
      "outputModuleId": 18,
      "outputId": 0,
      "inputModuleId": 6,
      "inputId": 4,
      "color": "#c9b70e"
    },
    {
      "id": 247,
      "outputModuleId": 16,
      "outputId": 0,
      "inputModuleId": 21,
      "inputId": 1,
      "color": "#c91847"
    },
    {
      "id": 251,
      "outputModuleId": 22,
      "outputId": 0,
      "inputModuleId": 21,
      "inputId": 2,
      "color": "#c9b70e"
    },
    {
      "id": 301,
      "outputModuleId": 15,
      "outputId": 1,
      "inputModuleId": 3,
      "inputId": 1,
      "color": "#0c8e15"
    },
    {
      "id": 302,
      "outputModuleId": 6,
      "outputId": 0,
      "inputModuleId": 2,
      "inputId": 0,
      "color": "#c91847"
    },
    {
      "id": 245,
      "outputModuleId": 18,
      "outputId": 1,
      "inputModuleId": 15,
      "inputId": 3,
      "color": "#0c8e15"
    },
    {
      "id": 230,
      "outputModuleId": 3,
      "outputId": 1,
      "inputModuleId": 4,
      "inputId": 3,
      "color": "#0c8e15"
    },
    {
      "id": 340,
      "outputModuleId": 18,
      "outputId": 2,
      "inputModuleId": 15,
      "inputId": 0,
      "color": "#0986ad"
    },
    {
      "id": 341,
      "outputModuleId": 2,
      "outputId": 0,
      "inputModuleId": 23,
      "inputId": 2,
      "color": "#c91847"
    }
  ]
}