{
  "version": "1.1.6",
  "modules": [
    {
      "id": 1,
      "plugin": "Core",
      "version": "1.1.6",
      "model": "AudioInterface",
      "params": [],
      "leftModuleId": 2,
      "data": {
        "audio": {
          "driver": 8,
          "deviceName": "Realtek HD Audio 2nd output (Realtek(R) Audio)",
          "offset": 0,
          "maxChannels": 8,
          "sampleRate": 44100,
          "blockSize": 256
        }
      },
      "pos": [
        78,
        0
      ]
    },
    {
      "id": 2,
      "plugin": "Fundamental",
      "version": "1.4.0",
      "model": "VCMixer",
      "params": [
        {
          "id": 0,
          "value": 0.445000261
        },
        {
          "id": 1,
          "value": 0.821809173
        },
        {
          "id": 2,
          "value": 0.0
        },
        {
          "id": 3,
          "value": 0.0
        },
        {
          "id": 4,
          "value": 0.0
        }
      ],
      "leftModuleId": 6,
      "rightModuleId": 1,
      "pos": [
        68,
        0
      ]
    },
    {
      "id": 3,
      "plugin": "Fundamental",
      "version": "1.4.0",
      "model": "VCO",
      "params": [
        {
          "id": 0,
          "value": 1.0
        },
        {
          "id": 1,
          "value": 1.0
        },
        {
          "id": 2,
          "value": -54.0
        },
        {
          "id": 3,
          "value": 0.0
        },
        {
          "id": 4,
          "value": 0.556500196
        },
        {
          "id": 5,
          "value": 0.585260272
        },
        {
          "id": 6,
          "value": 0.77549994
        }
      ],
      "leftModuleId": 50,
      "rightModuleId": 4,
      "pos": [
        42,
        0
      ]
    },
    {
      "id": 4,
      "plugin": "Fundamental",
      "version": "1.4.0",
      "model": "VCF",
      "params": [
        {
          "id": 0,
          "value": 0.0
        },
        {
          "id": 1,
          "value": 0.5
        },
        {
          "id": 2,
          "value": 0.0
        },
        {
          "id": 3,
          "value": 1.0
        },
        {
          "id": 4,
          "value": 0.0
        }
      ],
      "leftModuleId": 3,
      "rightModuleId": 6,
      "pos": [
        52,
        0
      ]
    },
    {
      "id": 6,
      "plugin": "Fundamental",
      "version": "1.4.0",
      "model": "ADSR",
      "params": [
        {
          "id": 0,
          "value": 0.0
        },
        {
          "id": 1,
          "value": 0.346499711
        },
        {
          "id": 2,
          "value": 0.0
        },
        {
          "id": 3,
          "value": 0.376499802
        }
      ],
      "leftModuleId": 4,
      "rightModuleId": 2,
      "pos": [
        60,
        0
      ]
    },
    {
      "id": 49,
      "plugin": "Fundamental",
      "version": "1.4.0",
      "model": "SEQ3",
      "params": [
        {
          "id": 0,
          "value": -0.343999773
        },
        {
          "id": 1,
          "value": 0.0
        },
        {
          "id": 2,
          "value": 0.0
        },
        {
          "id": 3,
          "value": 8.0
        },
        {
          "id": 4,
          "value": 0.0
        },
        {
          "id": 5,
          "value": 0.974999964
        },
        {
          "id": 6,
          "value": 10.0
        },
        {
          "id": 7,
          "value": 0.914999962
        },
        {
          "id": 8,
          "value": 2.43000031
        },
        {
          "id": 9,
          "value": 3.34500027
        },
        {
          "id": 10,
          "value": 0.765000045
        },
        {
          "id": 11,
          "value": 6.47499943
        },
        {
          "id": 12,
          "value": 3.03000045
        },
        {
          "id": 13,
          "value": 5.27999973
        },
        {
          "id": 14,
          "value": 2.98500037
        },
        {
          "id": 15,
          "value": 6.25500202
        },
        {
          "id": 16,
          "value": 8.82999897
        },
        {
          "id": 17,
          "value": 4.6500001
        },
        {
          "id": 18,
          "value": 2.7300005
        },
        {
          "id": 19,
          "value": 3.07500005
        },
        {
          "id": 20,
          "value": 0.0
        },
        {
          "id": 21,
          "value": 3.45000052
        },
        {
          "id": 22,
          "value": 5.59500027
        },
        {
          "id": 23,
          "value": 2.43000054
        },
        {
          "id": 24,
          "value": 2.23500061
        },
        {
          "id": 25,
          "value": 5.85000134
        },
        {
          "id": 26,
          "value": 3.1650002
        },
        {
          "id": 27,
          "value": 0.0
        },
        {
          "id": 28,
          "value": 0.0
        },
        {
          "id": 29,
          "value": 0.0
        },
        {
          "id": 30,
          "value": 0.0
        },
        {
          "id": 31,
          "value": 0.0
        },
        {
          "id": 32,
          "value": 0.0
        },
        {
          "id": 33,
          "value": 0.0
        },
        {
          "id": 34,
          "value": 0.0
        },
        {
          "id": 35,
          "value": 0.0
        }
      ],
      "rightModuleId": 50,
      "data": {
        "running": true,
        "gates": [
          1,
          1,
          1,
          1,
          1,
          1,
          1,
          1
        ]
      },
      "pos": [
        0,
        0
      ]
    },
    {
      "id": 50,
      "plugin": "Axioma",
      "version": "1.0.0",
      "model": "Tesseract",
      "params": [
        {
          "id": 0,
          "value": 0.0
        },
        {
          "id": 1,
          "value": 0.0
        },
        {
          "id": 2,
          "value": 0.0
        },
        {
          "id": 3,
          "value": 0.0
        },
        {
          "id": 4,
          "value": 0.0
        },
        {
          "id": 5,
          "value": 0.0
        },
        {
          "id": 6,
          "value": 3.08999991
        }
      ],
      "leftModuleId": 49,
      "rightModuleId": 3,
      "pos": [
        22,
        0
      ]
    }
  ],
  "cables": [
    {
      "id": 98,
      "outputModuleId": 6,
      "outputId": 0,
      "inputModuleId": 4,
      "inputId": 0,
      "color": "#c91847"
    },
    {
      "id": 100,
      "outputModuleId": 6,
      "outputId": 0,
      "inputModuleId": 2,
      "inputId": 5,
      "color": "#0c8e15"
    },
    {
      "id": 111,
      "outputModuleId": 49,
      "outputId": 0,
      "inputModuleId": 6,
      "inputId": 4,
      "color": "#c9b70e"
    },
    {
      "id": 116,
      "outputModuleId": 50,
      "outputId": 3,
      "inputModuleId": 6,
      "inputId": 3,
      "color": "#c91847"
    },
    {
      "id": 117,
      "outputModuleId": 50,
      "outputId": 2,
      "inputModuleId": 6,
      "inputId": 2,
      "color": "#0986ad"
    },
    {
      "id": 118,
      "outputModuleId": 50,
      "outputId": 1,
      "inputModuleId": 6,
      "inputId": 0,
      "color": "#c9b70e"
    },
    {
      "id": 119,
      "outputModuleId": 50,
      "outputId": 0,
      "inputModuleId": 4,
      "inputId": 1,
      "color": "#0c8e15"
    },
    {
      "id": 120,
      "outputModuleId": 50,
      "outputId": 19,
      "inputModuleId": 4,
      "inputId": 2,
      "color": "#c91847"
    },
    {
      "id": 121,
      "outputModuleId": 50,
      "outputId": 18,
      "inputModuleId": 3,
      "inputId": 1,
      "color": "#0986ad"
    },
    {
      "id": 122,
      "outputModuleId": 50,
      "outputId": 17,
      "inputModuleId": 3,
      "inputId": 3,
      "color": "#c9b70e"
    },
    {
      "id": 95,
      "outputModuleId": 3,
      "outputId": 3,
      "inputModuleId": 4,
      "inputId": 3,
      "color": "#0c8e15"
    },
    {
      "id": 124,
      "outputModuleId": 50,
      "outputId": 6,
      "inputModuleId": 6,
      "inputId": 1,
      "color": "#c91847"
    },
    {
      "id": 97,
      "outputModuleId": 2,
      "outputId": 0,
      "inputModuleId": 1,
      "inputId": 1,
      "color": "#c9b70e"
    },
    {
      "id": 96,
      "outputModuleId": 2,
      "outputId": 0,
      "inputModuleId": 1,
      "inputId": 0,
      "color": "#0986ad"
    },
    {
      "id": 101,
      "outputModuleId": 4,
      "outputId": 0,
      "inputModuleId": 2,
      "inputId": 1,
      "color": "#0986ad"
    },
    {
      "id": 282,
      "outputModuleId": 49,
      "outputId": 2,
      "inputModuleId": 50,
      "inputId": 1,
      "color": "#c91847"
    },
    {
      "id": 283,
      "outputModuleId": 49,
      "outputId": 3,
      "inputModuleId": 50,
      "inputId": 5,
      "color": "#0986ad"
    },
    {
      "id": 284,
      "outputModuleId": 49,
      "outputId": 2,
      "inputModuleId": 50,
      "inputId": 4,
      "color": "#0c8e15"
    },
    {
      "id": 285,
      "outputModuleId": 50,
      "outputId": 5,
      "inputModuleId": 3,
      "inputId": 0,
      "color": "#c91847"
    },
    {
      "id": 286,
      "outputModuleId": 49,
      "outputId": 1,
      "inputModuleId": 50,
      "inputId": 3,
      "color": "#c9b70e"
    },
    {
      "id": 288,
      "outputModuleId": 49,
      "outputId": 1,
      "inputModuleId": 50,
      "inputId": 0,
      "color": "#c91847"
    },
    {
      "id": 289,
      "outputModuleId": 50,
      "outputId": 4,
      "inputModuleId": 49,
      "inputId": 3,
      "color": "#0986ad"
    }
  ]
}