{
  "version": "1.1.6",
  "modules": [
    {
      "id": 27,
      "plugin": "Axioma",
      "version": "1.0.0",
      "model": "TheBifurcator",
      "params": [
        {
          "id": 0,
          "value": 0.0
        },
        {
          "id": 1,
          "value": 1.0
        },
        {
          "id": 2,
          "value": 7.82499886
        },
        {
          "id": 3,
          "value": -2.0
        },
        {
          "id": 4,
          "value": 1.0
        }
      ],
      "leftModuleId": 29,
      "rightModuleId": 31,
      "pos": [
        20,
        1
      ]
    },
    {
      "id": 28,
      "plugin": "Fundamental",
      "version": "1.4.0",
      "model": "VCMixer",
      "params": [
        {
          "id": 0,
          "value": 1.3410002
        },
        {
          "id": 1,
          "value": 0.712763786
        },
        {
          "id": 2,
          "value": 1.0
        },
        {
          "id": 3,
          "value": 1.0
        },
        {
          "id": 4,
          "value": 1.0
        }
      ],
      "leftModuleId": 70,
      "pos": [
        116,
        2
      ]
    },
    {
      "id": 29,
      "plugin": "Fundamental",
      "version": "1.4.0",
      "model": "VCMixer",
      "params": [
        {
          "id": 0,
          "value": 1.0
        },
        {
          "id": 1,
          "value": 0.7963534
        },
        {
          "id": 2,
          "value": 0.355118901
        },
        {
          "id": 3,
          "value": 0.439971387
        },
        {
          "id": 4,
          "value": 1.0
        }
      ],
      "leftModuleId": 32,
      "rightModuleId": 27,
      "pos": [
        10,
        1
      ]
    },
    {
      "id": 31,
      "plugin": "Fundamental",
      "version": "1.4.0",
      "model": "SEQ3",
      "params": [
        {
          "id": 0,
          "value": -1.54400015
        },
        {
          "id": 1,
          "value": 0.0
        },
        {
          "id": 2,
          "value": 0.0
        },
        {
          "id": 3,
          "value": 8.0
        },
        {
          "id": 4,
          "value": 2.63999963
        },
        {
          "id": 5,
          "value": 0.839999974
        },
        {
          "id": 6,
          "value": 4.27499962
        },
        {
          "id": 7,
          "value": 2.4599998
        },
        {
          "id": 8,
          "value": 4.90500116
        },
        {
          "id": 9,
          "value": 3.85500073
        },
        {
          "id": 10,
          "value": 3.96000028
        },
        {
          "id": 11,
          "value": 1.84500015
        },
        {
          "id": 12,
          "value": 0.0
        },
        {
          "id": 13,
          "value": 2.44499993
        },
        {
          "id": 14,
          "value": 2.70000052
        },
        {
          "id": 15,
          "value": 1.36499989
        },
        {
          "id": 16,
          "value": 6.03000021
        },
        {
          "id": 17,
          "value": 6.22500134
        },
        {
          "id": 18,
          "value": 0.0
        },
        {
          "id": 19,
          "value": 5.38500071
        },
        {
          "id": 20,
          "value": 1.03500009
        },
        {
          "id": 21,
          "value": 4.99499989
        },
        {
          "id": 22,
          "value": 0.0
        },
        {
          "id": 23,
          "value": 4.51499939
        },
        {
          "id": 24,
          "value": 0.0
        },
        {
          "id": 25,
          "value": 2.05500054
        },
        {
          "id": 26,
          "value": 2.94000053
        },
        {
          "id": 27,
          "value": 7.91499949
        },
        {
          "id": 28,
          "value": 0.0
        },
        {
          "id": 29,
          "value": 0.0
        },
        {
          "id": 30,
          "value": 0.0
        },
        {
          "id": 31,
          "value": 0.0
        },
        {
          "id": 32,
          "value": 0.0
        },
        {
          "id": 33,
          "value": 0.0
        },
        {
          "id": 34,
          "value": 0.0
        },
        {
          "id": 35,
          "value": 0.0
        }
      ],
      "leftModuleId": 27,
      "rightModuleId": 59,
      "data": {
        "running": true,
        "gates": [
          1,
          1,
          1,
          1,
          1,
          1,
          1,
          1
        ]
      },
      "pos": [
        52,
        1
      ]
    },
    {
      "id": 32,
      "plugin": "Fundamental",
      "version": "1.4.0",
      "model": "LFO",
      "params": [
        {
          "id": 0,
          "value": 1.0
        },
        {
          "id": 1,
          "value": 1.0
        },
        {
          "id": 2,
          "value": -4.35499525
        },
        {
          "id": 3,
          "value": 0.0
        },
        {
          "id": 4,
          "value": 0.0
        },
        {
          "id": 5,
          "value": 0.5
        },
        {
          "id": 6,
          "value": 0.0
        }
      ],
      "rightModuleId": 29,
      "pos": [
        0,
        1
      ]
    },
    {
      "id": 33,
      "plugin": "Fundamental",
      "version": "1.4.0",
      "model": "VCO",
      "params": [
        {
          "id": 0,
          "value": 1.0
        },
        {
          "id": 1,
          "value": 1.0
        },
        {
          "id": 2,
          "value": -54.0
        },
        {
          "id": 3,
          "value": 0.0
        },
        {
          "id": 4,
          "value": 0.0675000548
        },
        {
          "id": 5,
          "value": 0.5
        },
        {
          "id": 6,
          "value": 0.0
        }
      ],
      "rightModuleId": 34,
      "pos": [
        0,
        0
      ]
    },
    {
      "id": 34,
      "plugin": "Fundamental",
      "version": "1.4.0",
      "model": "VCF",
      "params": [
        {
          "id": 0,
          "value": 0.490500063
        },
        {
          "id": 1,
          "value": 0.5
        },
        {
          "id": 2,
          "value": 0.0
        },
        {
          "id": 3,
          "value": 0.312999666
        },
        {
          "id": 4,
          "value": 0.0
        }
      ],
      "leftModuleId": 33,
      "rightModuleId": 35,
      "pos": [
        10,
        0
      ]
    },
    {
      "id": 35,
      "plugin": "Fundamental",
      "version": "1.4.0",
      "model": "ADSR",
      "params": [
        {
          "id": 0,
          "value": 0.0
        },
        {
          "id": 1,
          "value": 0.340999842
        },
        {
          "id": 2,
          "value": 1.0
        },
        {
          "id": 3,
          "value": 0.709000051
        }
      ],
      "leftModuleId": 34,
      "rightModuleId": 65,
      "pos": [
        18,
        0
      ]
    },
    {
      "id": 36,
      "plugin": "Fundamental",
      "version": "1.4.0",
      "model": "VCO",
      "params": [
        {
          "id": 0,
          "value": 1.0
        },
        {
          "id": 1,
          "value": 1.0
        },
        {
          "id": 2,
          "value": -54.0
        },
        {
          "id": 3,
          "value": 0.0
        },
        {
          "id": 4,
          "value": 0.0315000229
        },
        {
          "id": 5,
          "value": 0.5
        },
        {
          "id": 6,
          "value": 0.0
        }
      ],
      "leftModuleId": 65,
      "rightModuleId": 37,
      "pos": [
        29,
        0
      ]
    },
    {
      "id": 37,
      "plugin": "Fundamental",
      "version": "1.4.0",
      "model": "VCF",
      "params": [
        {
          "id": 0,
          "value": 0.507000089
        },
        {
          "id": 1,
          "value": 0.5
        },
        {
          "id": 2,
          "value": 0.0
        },
        {
          "id": 3,
          "value": 0.340000093
        },
        {
          "id": 4,
          "value": 0.0
        }
      ],
      "leftModuleId": 36,
      "rightModuleId": 38,
      "pos": [
        39,
        0
      ]
    },
    {
      "id": 38,
      "plugin": "Fundamental",
      "version": "1.4.0",
      "model": "ADSR",
      "params": [
        {
          "id": 0,
          "value": 0.244000107
        },
        {
          "id": 1,
          "value": 0.315500081
        },
        {
          "id": 2,
          "value": 0.0
        },
        {
          "id": 3,
          "value": 0.503499866
        }
      ],
      "leftModuleId": 37,
      "rightModuleId": 64,
      "pos": [
        47,
        0
      ]
    },
    {
      "id": 39,
      "plugin": "Fundamental",
      "version": "1.4.0",
      "model": "VCO",
      "params": [
        {
          "id": 0,
          "value": 1.0
        },
        {
          "id": 1,
          "value": 1.0
        },
        {
          "id": 2,
          "value": -54.0
        },
        {
          "id": 3,
          "value": 0.0
        },
        {
          "id": 4,
          "value": 0.277499974
        },
        {
          "id": 5,
          "value": 0.5
        },
        {
          "id": 6,
          "value": 0.0
        }
      ],
      "leftModuleId": 64,
      "rightModuleId": 40,
      "pos": [
        58,
        0
      ]
    },
    {
      "id": 40,
      "plugin": "Fundamental",
      "version": "1.4.0",
      "model": "VCF",
      "params": [
        {
          "id": 0,
          "value": 0.496499985
        },
        {
          "id": 1,
          "value": 0.5
        },
        {
          "id": 2,
          "value": 0.0
        },
        {
          "id": 3,
          "value": 0.339999825
        },
        {
          "id": 4,
          "value": 0.0
        }
      ],
      "leftModuleId": 39,
      "rightModuleId": 41,
      "pos": [
        68,
        0
      ]
    },
    {
      "id": 41,
      "plugin": "Fundamental",
      "version": "1.4.0",
      "model": "ADSR",
      "params": [
        {
          "id": 0,
          "value": 0.243999928
        },
        {
          "id": 1,
          "value": 0.479000002
        },
        {
          "id": 2,
          "value": 0.56949991
        },
        {
          "id": 3,
          "value": 0.713500202
        }
      ],
      "leftModuleId": 40,
      "rightModuleId": 63,
      "pos": [
        76,
        0
      ]
    },
    {
      "id": 42,
      "plugin": "Fundamental",
      "version": "1.4.0",
      "model": "VCO",
      "params": [
        {
          "id": 0,
          "value": 1.0
        },
        {
          "id": 1,
          "value": 1.0
        },
        {
          "id": 2,
          "value": -54.0
        },
        {
          "id": 3,
          "value": 0.0
        },
        {
          "id": 4,
          "value": 0.0
        },
        {
          "id": 5,
          "value": 0.5
        },
        {
          "id": 6,
          "value": 0.0
        }
      ],
      "leftModuleId": 63,
      "rightModuleId": 43,
      "pos": [
        87,
        0
      ]
    },
    {
      "id": 43,
      "plugin": "Fundamental",
      "version": "1.4.0",
      "model": "VCF",
      "params": [
        {
          "id": 0,
          "value": 0.372000009
        },
        {
          "id": 1,
          "value": 0.5
        },
        {
          "id": 2,
          "value": 0.0
        },
        {
          "id": 3,
          "value": 0.192999989
        },
        {
          "id": 4,
          "value": 0.0
        }
      ],
      "leftModuleId": 42,
      "rightModuleId": 44,
      "pos": [
        97,
        0
      ]
    },
    {
      "id": 44,
      "plugin": "Fundamental",
      "version": "1.4.0",
      "model": "ADSR",
      "params": [
        {
          "id": 0,
          "value": 0.341500074
        },
        {
          "id": 1,
          "value": 0.404000074
        },
        {
          "id": 2,
          "value": 0.511000097
        },
        {
          "id": 3,
          "value": 0.734499872
        }
      ],
      "leftModuleId": 43,
      "rightModuleId": 66,
      "pos": [
        105,
        0
      ]
    },
    {
      "id": 45,
      "plugin": "Fundamental",
      "version": "1.4.0",
      "model": "VCMixer",
      "params": [
        {
          "id": 0,
          "value": 0.834000349
        },
        {
          "id": 1,
          "value": 0.709935367
        },
        {
          "id": 2,
          "value": 0.89817667
        },
        {
          "id": 3,
          "value": 0.885448694
        },
        {
          "id": 4,
          "value": 1.0
        }
      ],
      "leftModuleId": 66,
      "pos": [
        116,
        0
      ]
    },
    {
      "id": 46,
      "plugin": "Fundamental",
      "version": "1.4.0",
      "model": "VCO",
      "params": [
        {
          "id": 0,
          "value": 1.0
        },
        {
          "id": 1,
          "value": 1.0
        },
        {
          "id": 2,
          "value": -54.0
        },
        {
          "id": 3,
          "value": -1.0
        },
        {
          "id": 4,
          "value": 0.2099998
        },
        {
          "id": 5,
          "value": 0.5
        },
        {
          "id": 6,
          "value": 0.0
        }
      ],
      "rightModuleId": 47,
      "pos": [
        0,
        2
      ]
    },
    {
      "id": 47,
      "plugin": "Fundamental",
      "version": "1.4.0",
      "model": "VCF",
      "params": [
        {
          "id": 0,
          "value": 0.439999908
        },
        {
          "id": 1,
          "value": 0.5
        },
        {
          "id": 2,
          "value": 0.0
        },
        {
          "id": 3,
          "value": 1.0
        },
        {
          "id": 4,
          "value": 0.0
        }
      ],
      "leftModuleId": 46,
      "rightModuleId": 48,
      "pos": [
        10,
        2
      ]
    },
    {
      "id": 48,
      "plugin": "Fundamental",
      "version": "1.4.0",
      "model": "ADSR",
      "params": [
        {
          "id": 0,
          "value": 0.0480000004
        },
        {
          "id": 1,
          "value": 0.569499969
        },
        {
          "id": 2,
          "value": 0.509500086
        },
        {
          "id": 3,
          "value": 0.663999975
        }
      ],
      "leftModuleId": 47,
      "rightModuleId": 67,
      "pos": [
        18,
        2
      ]
    },
    {
      "id": 49,
      "plugin": "Fundamental",
      "version": "1.4.0",
      "model": "VCO",
      "params": [
        {
          "id": 0,
          "value": 1.0
        },
        {
          "id": 1,
          "value": 1.0
        },
        {
          "id": 2,
          "value": 0.270000398
        },
        {
          "id": 3,
          "value": -1.0
        },
        {
          "id": 4,
          "value": 0.149499908
        },
        {
          "id": 5,
          "value": 0.5
        },
        {
          "id": 6,
          "value": 0.0
        }
      ],
      "leftModuleId": 67,
      "rightModuleId": 51,
      "pos": [
        29,
        2
      ]
    },
    {
      "id": 51,
      "plugin": "Fundamental",
      "version": "1.4.0",
      "model": "VCF",
      "params": [
        {
          "id": 0,
          "value": 0.04399997
        },
        {
          "id": 1,
          "value": 0.5
        },
        {
          "id": 2,
          "value": 0.0
        },
        {
          "id": 3,
          "value": 1.0
        },
        {
          "id": 4,
          "value": 0.0
        }
      ],
      "leftModuleId": 49,
      "rightModuleId": 52,
      "pos": [
        39,
        2
      ]
    },
    {
      "id": 52,
      "plugin": "Fundamental",
      "version": "1.4.0",
      "model": "ADSR",
      "params": [
        {
          "id": 0,
          "value": 0.378499895
        },
        {
          "id": 1,
          "value": 0.617499948
        },
        {
          "id": 2,
          "value": 1.0
        },
        {
          "id": 3,
          "value": 0.575500131
        }
      ],
      "leftModuleId": 51,
      "rightModuleId": 68,
      "pos": [
        47,
        2
      ]
    },
    {
      "id": 53,
      "plugin": "Fundamental",
      "version": "1.4.0",
      "model": "VCO",
      "params": [
        {
          "id": 0,
          "value": 1.0
        },
        {
          "id": 1,
          "value": 1.0
        },
        {
          "id": 2,
          "value": 0.0
        },
        {
          "id": 3,
          "value": -1.0
        },
        {
          "id": 4,
          "value": 0.171999872
        },
        {
          "id": 5,
          "value": 0.5
        },
        {
          "id": 6,
          "value": 0.0
        }
      ],
      "leftModuleId": 68,
      "rightModuleId": 54,
      "pos": [
        58,
        2
      ]
    },
    {
      "id": 54,
      "plugin": "Fundamental",
      "version": "1.4.0",
      "model": "VCF",
      "params": [
        {
          "id": 0,
          "value": 0.536000013
        },
        {
          "id": 1,
          "value": 0.5
        },
        {
          "id": 2,
          "value": 0.0
        },
        {
          "id": 3,
          "value": -0.0530001707
        },
        {
          "id": 4,
          "value": 0.0
        }
      ],
      "leftModuleId": 53,
      "rightModuleId": 55,
      "pos": [
        68,
        2
      ]
    },
    {
      "id": 55,
      "plugin": "Fundamental",
      "version": "1.4.0",
      "model": "ADSR",
      "params": [
        {
          "id": 0,
          "value": 0.437499881
        },
        {
          "id": 1,
          "value": 1.0
        },
        {
          "id": 2,
          "value": 0.313500047
        },
        {
          "id": 3,
          "value": 0.615999818
        }
      ],
      "leftModuleId": 54,
      "rightModuleId": 69,
      "pos": [
        76,
        2
      ]
    },
    {
      "id": 56,
      "plugin": "Fundamental",
      "version": "1.4.0",
      "model": "VCO",
      "params": [
        {
          "id": 0,
          "value": 1.0
        },
        {
          "id": 1,
          "value": 1.0
        },
        {
          "id": 2,
          "value": -54.0
        },
        {
          "id": 3,
          "value": -1.0
        },
        {
          "id": 4,
          "value": 0.16449976
        },
        {
          "id": 5,
          "value": 0.5
        },
        {
          "id": 6,
          "value": 0.0
        }
      ],
      "leftModuleId": 69,
      "rightModuleId": 57,
      "pos": [
        87,
        2
      ]
    },
    {
      "id": 57,
      "plugin": "Fundamental",
      "version": "1.4.0",
      "model": "VCF",
      "params": [
        {
          "id": 0,
          "value": 0.445499986
        },
        {
          "id": 1,
          "value": 0.5
        },
        {
          "id": 2,
          "value": 0.0
        },
        {
          "id": 3,
          "value": 1.0
        },
        {
          "id": 4,
          "value": 0.0
        }
      ],
      "leftModuleId": 56,
      "rightModuleId": 58,
      "pos": [
        97,
        2
      ]
    },
    {
      "id": 58,
      "plugin": "Fundamental",
      "version": "1.4.0",
      "model": "ADSR",
      "params": [
        {
          "id": 0,
          "value": 0.29949984
        },
        {
          "id": 1,
          "value": 0.408999979
        },
        {
          "id": 2,
          "value": 0.496000022
        },
        {
          "id": 3,
          "value": 0.73150003
        }
      ],
      "leftModuleId": 57,
      "rightModuleId": 70,
      "pos": [
        105,
        2
      ]
    },
    {
      "id": 59,
      "plugin": "Axioma",
      "version": "1.0.0",
      "model": "TheBifurcator",
      "params": [
        {
          "id": 0,
          "value": 1.0
        },
        {
          "id": 1,
          "value": 2.0
        },
        {
          "id": 2,
          "value": 8.27500916
        },
        {
          "id": 3,
          "value": -0.404000163
        },
        {
          "id": 4,
          "value": 3.0
        }
      ],
      "leftModuleId": 31,
      "rightModuleId": 60,
      "pos": [
        74,
        1
      ]
    },
    {
      "id": 60,
      "plugin": "Core",
      "version": "1.1.6",
      "model": "AudioInterface",
      "params": [],
      "leftModuleId": 59,
      "rightModuleId": 61,
      "data": {
        "audio": {
          "driver": 8,
          "deviceName": "Realtek HD Audio 2nd output (Realtek(R) Audio)",
          "offset": 0,
          "maxChannels": 8,
          "sampleRate": 44100,
          "blockSize": 1024
        }
      },
      "pos": [
        106,
        1
      ]
    },
    {
      "id": 61,
      "plugin": "Fundamental",
      "version": "1.4.0",
      "model": "VCMixer",
      "params": [
        {
          "id": 0,
          "value": 0.762000144
        },
        {
          "id": 1,
          "value": 0.923632324
        },
        {
          "id": 2,
          "value": 0.889691293
        },
        {
          "id": 3,
          "value": 1.0
        },
        {
          "id": 4,
          "value": 1.0
        }
      ],
      "leftModuleId": 60,
      "pos": [
        116,
        1
      ]
    },
    {
      "id": 63,
      "plugin": "Fundamental",
      "version": "1.4.0",
      "model": "VCA-1",
      "params": [
        {
          "id": 0,
          "value": 1.0
        },
        {
          "id": 1,
          "value": 1.0
        }
      ],
      "leftModuleId": 41,
      "rightModuleId": 42,
      "pos": [
        84,
        0
      ]
    },
    {
      "id": 64,
      "plugin": "Fundamental",
      "version": "1.4.0",
      "model": "VCA-1",
      "params": [
        {
          "id": 0,
          "value": 1.0
        },
        {
          "id": 1,
          "value": 1.0
        }
      ],
      "leftModuleId": 38,
      "rightModuleId": 39,
      "pos": [
        55,
        0
      ]
    },
    {
      "id": 65,
      "plugin": "Fundamental",
      "version": "1.4.0",
      "model": "VCA-1",
      "params": [
        {
          "id": 0,
          "value": 1.0
        },
        {
          "id": 1,
          "value": 1.0
        }
      ],
      "leftModuleId": 35,
      "rightModuleId": 36,
      "pos": [
        26,
        0
      ]
    },
    {
      "id": 66,
      "plugin": "Fundamental",
      "version": "1.4.0",
      "model": "VCA-1",
      "params": [
        {
          "id": 0,
          "value": 1.0
        },
        {
          "id": 1,
          "value": 1.0
        }
      ],
      "leftModuleId": 44,
      "rightModuleId": 45,
      "pos": [
        113,
        0
      ]
    },
    {
      "id": 67,
      "plugin": "Fundamental",
      "version": "1.4.0",
      "model": "VCA-1",
      "params": [
        {
          "id": 0,
          "value": 1.0
        },
        {
          "id": 1,
          "value": 1.0
        }
      ],
      "leftModuleId": 48,
      "rightModuleId": 49,
      "pos": [
        26,
        2
      ]
    },
    {
      "id": 68,
      "plugin": "Fundamental",
      "version": "1.4.0",
      "model": "VCA-1",
      "params": [
        {
          "id": 0,
          "value": 1.0
        },
        {
          "id": 1,
          "value": 1.0
        }
      ],
      "leftModuleId": 52,
      "rightModuleId": 53,
      "pos": [
        55,
        2
      ]
    },
    {
      "id": 69,
      "plugin": "Fundamental",
      "version": "1.4.0",
      "model": "VCA-1",
      "params": [
        {
          "id": 0,
          "value": 1.0
        },
        {
          "id": 1,
          "value": 1.0
        }
      ],
      "leftModuleId": 55,
      "rightModuleId": 56,
      "pos": [
        84,
        2
      ]
    },
    {
      "id": 70,
      "plugin": "Fundamental",
      "version": "1.4.0",
      "model": "VCA-1",
      "params": [
        {
          "id": 0,
          "value": 1.0
        },
        {
          "id": 1,
          "value": 1.0
        }
      ],
      "leftModuleId": 58,
      "rightModuleId": 28,
      "pos": [
        113,
        2
      ]
    }
  ],
  "cables": [
    {
      "id": 0,
      "outputModuleId": 27,
      "outputId": 7,
      "inputModuleId": 33,
      "inputId": 0,
      "color": "#c9b70e"
    },
    {
      "id": 1,
      "outputModuleId": 27,
      "outputId": 6,
      "inputModuleId": 36,
      "inputId": 0,
      "color": "#0c8e15"
    },
    {
      "id": 2,
      "outputModuleId": 27,
      "outputId": 5,
      "inputModuleId": 39,
      "inputId": 0,
      "color": "#c91847"
    },
    {
      "id": 3,
      "outputModuleId": 27,
      "outputId": 4,
      "inputModuleId": 42,
      "inputId": 0,
      "color": "#0986ad"
    },
    {
      "id": 4,
      "outputModuleId": 27,
      "outputId": 3,
      "inputModuleId": 46,
      "inputId": 0,
      "color": "#c9b70e"
    },
    {
      "id": 5,
      "outputModuleId": 27,
      "outputId": 2,
      "inputModuleId": 49,
      "inputId": 0,
      "color": "#0c8e15"
    },
    {
      "id": 6,
      "outputModuleId": 27,
      "outputId": 1,
      "inputModuleId": 53,
      "inputId": 0,
      "color": "#c91847"
    },
    {
      "id": 7,
      "outputModuleId": 27,
      "outputId": 0,
      "inputModuleId": 56,
      "inputId": 0,
      "color": "#0986ad"
    },
    {
      "id": 8,
      "outputModuleId": 27,
      "outputId": 15,
      "inputModuleId": 35,
      "inputId": 4,
      "color": "#c9b70e"
    },
    {
      "id": 9,
      "outputModuleId": 27,
      "outputId": 14,
      "inputModuleId": 38,
      "inputId": 4,
      "color": "#0c8e15"
    },
    {
      "id": 10,
      "outputModuleId": 27,
      "outputId": 13,
      "inputModuleId": 41,
      "inputId": 4,
      "color": "#c91847"
    },
    {
      "id": 11,
      "outputModuleId": 27,
      "outputId": 12,
      "inputModuleId": 44,
      "inputId": 4,
      "color": "#0986ad"
    },
    {
      "id": 12,
      "outputModuleId": 27,
      "outputId": 11,
      "inputModuleId": 48,
      "inputId": 4,
      "color": "#c9b70e"
    },
    {
      "id": 13,
      "outputModuleId": 27,
      "outputId": 10,
      "inputModuleId": 52,
      "inputId": 4,
      "color": "#0c8e15"
    },
    {
      "id": 14,
      "outputModuleId": 27,
      "outputId": 9,
      "inputModuleId": 55,
      "inputId": 4,
      "color": "#c91847"
    },
    {
      "id": 15,
      "outputModuleId": 27,
      "outputId": 8,
      "inputModuleId": 58,
      "inputId": 4,
      "color": "#0986ad"
    },
    {
      "id": 34,
      "outputModuleId": 55,
      "outputId": 0,
      "inputModuleId": 28,
      "inputId": 0,
      "color": "#c91847"
    },
    {
      "id": 35,
      "outputModuleId": 41,
      "outputId": 0,
      "inputModuleId": 45,
      "inputId": 0,
      "color": "#0986ad"
    },
    {
      "id": 36,
      "outputModuleId": 32,
      "outputId": 0,
      "inputModuleId": 29,
      "inputId": 1,
      "color": "#c9b70e"
    },
    {
      "id": 37,
      "outputModuleId": 29,
      "outputId": 1,
      "inputModuleId": 27,
      "inputId": 0,
      "color": "#0c8e15"
    },
    {
      "id": 38,
      "outputModuleId": 31,
      "outputId": 1,
      "inputModuleId": 27,
      "inputId": 1,
      "color": "#c91847"
    },
    {
      "id": 40,
      "outputModuleId": 41,
      "outputId": 0,
      "inputModuleId": 40,
      "inputId": 0,
      "color": "#0c8e15"
    },
    {
      "id": 41,
      "outputModuleId": 35,
      "outputId": 0,
      "inputModuleId": 34,
      "inputId": 0,
      "color": "#c91847"
    },
    {
      "id": 42,
      "outputModuleId": 38,
      "outputId": 0,
      "inputModuleId": 37,
      "inputId": 0,
      "color": "#c9b70e"
    },
    {
      "id": 43,
      "outputModuleId": 44,
      "outputId": 0,
      "inputModuleId": 43,
      "inputId": 0,
      "color": "#0c8e15"
    },
    {
      "id": 45,
      "outputModuleId": 48,
      "outputId": 0,
      "inputModuleId": 47,
      "inputId": 0,
      "color": "#0986ad"
    },
    {
      "id": 46,
      "outputModuleId": 52,
      "outputId": 0,
      "inputModuleId": 51,
      "inputId": 0,
      "color": "#c9b70e"
    },
    {
      "id": 48,
      "outputModuleId": 55,
      "outputId": 0,
      "inputModuleId": 54,
      "inputId": 0,
      "color": "#c91847"
    },
    {
      "id": 49,
      "outputModuleId": 58,
      "outputId": 0,
      "inputModuleId": 57,
      "inputId": 0,
      "color": "#0986ad"
    },
    {
      "id": 51,
      "outputModuleId": 49,
      "outputId": 1,
      "inputModuleId": 51,
      "inputId": 3,
      "color": "#0c8e15"
    },
    {
      "id": 52,
      "outputModuleId": 36,
      "outputId": 1,
      "inputModuleId": 37,
      "inputId": 3,
      "color": "#c91847"
    },
    {
      "id": 54,
      "outputModuleId": 42,
      "outputId": 1,
      "inputModuleId": 43,
      "inputId": 3,
      "color": "#c9b70e"
    },
    {
      "id": 55,
      "outputModuleId": 31,
      "outputId": 2,
      "inputModuleId": 59,
      "inputId": 1,
      "color": "#0c8e15"
    },
    {
      "id": 58,
      "outputModuleId": 59,
      "outputId": 7,
      "inputModuleId": 35,
      "inputId": 0,
      "color": "#c91847"
    },
    {
      "id": 59,
      "outputModuleId": 59,
      "outputId": 6,
      "inputModuleId": 38,
      "inputId": 0,
      "color": "#0986ad"
    },
    {
      "id": 61,
      "outputModuleId": 59,
      "outputId": 3,
      "inputModuleId": 48,
      "inputId": 0,
      "color": "#0c8e15"
    },
    {
      "id": 62,
      "outputModuleId": 59,
      "outputId": 2,
      "inputModuleId": 52,
      "inputId": 0,
      "color": "#c91847"
    },
    {
      "id": 63,
      "outputModuleId": 59,
      "outputId": 1,
      "inputModuleId": 55,
      "inputId": 0,
      "color": "#0986ad"
    },
    {
      "id": 64,
      "outputModuleId": 59,
      "outputId": 0,
      "inputModuleId": 58,
      "inputId": 0,
      "color": "#c9b70e"
    },
    {
      "id": 60,
      "outputModuleId": 59,
      "outputId": 5,
      "inputModuleId": 41,
      "inputId": 0,
      "color": "#c9b70e"
    },
    {
      "id": 65,
      "outputModuleId": 59,
      "outputId": 4,
      "inputModuleId": 44,
      "inputId": 0,
      "color": "#c91847"
    },
    {
      "id": 44,
      "outputModuleId": 46,
      "outputId": 1,
      "inputModuleId": 47,
      "inputId": 3,
      "color": "#c91847"
    },
    {
      "id": 47,
      "outputModuleId": 53,
      "outputId": 1,
      "inputModuleId": 54,
      "inputId": 3,
      "color": "#0c8e15"
    },
    {
      "id": 50,
      "outputModuleId": 56,
      "outputId": 1,
      "inputModuleId": 57,
      "inputId": 3,
      "color": "#c9b70e"
    },
    {
      "id": 53,
      "outputModuleId": 39,
      "outputId": 1,
      "inputModuleId": 40,
      "inputId": 3,
      "color": "#0986ad"
    },
    {
      "id": 39,
      "outputModuleId": 33,
      "outputId": 1,
      "inputModuleId": 34,
      "inputId": 3,
      "color": "#0986ad"
    },
    {
      "id": 68,
      "outputModuleId": 45,
      "outputId": 0,
      "inputModuleId": 61,
      "inputId": 1,
      "color": "#c9b70e"
    },
    {
      "id": 69,
      "outputModuleId": 28,
      "outputId": 0,
      "inputModuleId": 61,
      "inputId": 2,
      "color": "#0c8e15"
    },
    {
      "id": 74,
      "outputModuleId": 31,
      "outputId": 3,
      "inputModuleId": 32,
      "inputId": 0,
      "color": "#0986ad"
    },
    {
      "id": 25,
      "outputModuleId": 64,
      "outputId": 0,
      "inputModuleId": 45,
      "inputId": 2,
      "color": "#0c8e15"
    },
    {
      "id": 76,
      "outputModuleId": 34,
      "outputId": 0,
      "inputModuleId": 65,
      "inputId": 1,
      "color": "#c91847"
    },
    {
      "id": 81,
      "outputModuleId": 65,
      "outputId": 0,
      "inputModuleId": 45,
      "inputId": 1,
      "color": "#c9b70e"
    },
    {
      "id": 27,
      "outputModuleId": 66,
      "outputId": 0,
      "inputModuleId": 45,
      "inputId": 4,
      "color": "#0986ad"
    },
    {
      "id": 82,
      "outputModuleId": 43,
      "outputId": 0,
      "inputModuleId": 66,
      "inputId": 1,
      "color": "#0c8e15"
    },
    {
      "id": 30,
      "outputModuleId": 67,
      "outputId": 0,
      "inputModuleId": 28,
      "inputId": 1,
      "color": "#c91847"
    },
    {
      "id": 87,
      "outputModuleId": 47,
      "outputId": 0,
      "inputModuleId": 67,
      "inputId": 1,
      "color": "#c9b70e"
    },
    {
      "id": 31,
      "outputModuleId": 68,
      "outputId": 0,
      "inputModuleId": 28,
      "inputId": 2,
      "color": "#0986ad"
    },
    {
      "id": 88,
      "outputModuleId": 51,
      "outputId": 0,
      "inputModuleId": 68,
      "inputId": 1,
      "color": "#0c8e15"
    },
    {
      "id": 32,
      "outputModuleId": 69,
      "outputId": 0,
      "inputModuleId": 28,
      "inputId": 3,
      "color": "#c9b70e"
    },
    {
      "id": 89,
      "outputModuleId": 54,
      "outputId": 0,
      "inputModuleId": 69,
      "inputId": 1,
      "color": "#c91847"
    },
    {
      "id": 33,
      "outputModuleId": 70,
      "outputId": 0,
      "inputModuleId": 28,
      "inputId": 4,
      "color": "#0c8e15"
    },
    {
      "id": 90,
      "outputModuleId": 57,
      "outputId": 0,
      "inputModuleId": 70,
      "inputId": 1,
      "color": "#0986ad"
    },
    {
      "id": 75,
      "outputModuleId": 29,
      "outputId": 2,
      "inputModuleId": 31,
      "inputId": 0,
      "color": "#c9b70e"
    },
    {
      "id": 91,
      "outputModuleId": 32,
      "outputId": 1,
      "inputModuleId": 29,
      "inputId": 2,
      "color": "#c9b70e"
    },
    {
      "id": 92,
      "outputModuleId": 32,
      "outputId": 2,
      "inputModuleId": 29,
      "inputId": 3,
      "color": "#0c8e15"
    },
    {
      "id": 56,
      "outputModuleId": 29,
      "outputId": 3,
      "inputModuleId": 59,
      "inputId": 0,
      "color": "#0986ad"
    },
    {
      "id": 95,
      "outputModuleId": 38,
      "outputId": 0,
      "inputModuleId": 64,
      "inputId": 0,
      "color": "#c9b70e"
    },
    {
      "id": 101,
      "outputModuleId": 35,
      "outputId": 0,
      "inputModuleId": 65,
      "inputId": 0,
      "color": "#c91847"
    },
    {
      "id": 102,
      "outputModuleId": 41,
      "outputId": 0,
      "inputModuleId": 63,
      "inputId": 0,
      "color": "#0986ad"
    },
    {
      "id": 103,
      "outputModuleId": 44,
      "outputId": 0,
      "inputModuleId": 66,
      "inputId": 0,
      "color": "#c9b70e"
    },
    {
      "id": 104,
      "outputModuleId": 58,
      "outputId": 0,
      "inputModuleId": 70,
      "inputId": 0,
      "color": "#0c8e15"
    },
    {
      "id": 105,
      "outputModuleId": 55,
      "outputId": 0,
      "inputModuleId": 69,
      "inputId": 0,
      "color": "#c91847"
    },
    {
      "id": 106,
      "outputModuleId": 52,
      "outputId": 0,
      "inputModuleId": 68,
      "inputId": 0,
      "color": "#0986ad"
    },
    {
      "id": 107,
      "outputModuleId": 48,
      "outputId": 0,
      "inputModuleId": 67,
      "inputId": 0,
      "color": "#c9b70e"
    },
    {
      "id": 108,
      "outputModuleId": 31,
      "outputId": 4,
      "inputModuleId": 35,
      "inputId": 1,
      "color": "#0c8e15"
    },
    {
      "id": 109,
      "outputModuleId": 31,
      "outputId": 5,
      "inputModuleId": 38,
      "inputId": 1,
      "color": "#c91847"
    },
    {
      "id": 110,
      "outputModuleId": 31,
      "outputId": 6,
      "inputModuleId": 41,
      "inputId": 1,
      "color": "#0986ad"
    },
    {
      "id": 111,
      "outputModuleId": 31,
      "outputId": 7,
      "inputModuleId": 44,
      "inputId": 1,
      "color": "#c9b70e"
    },
    {
      "id": 112,
      "outputModuleId": 31,
      "outputId": 8,
      "inputModuleId": 48,
      "inputId": 1,
      "color": "#0c8e15"
    },
    {
      "id": 113,
      "outputModuleId": 31,
      "outputId": 9,
      "inputModuleId": 52,
      "inputId": 1,
      "color": "#0986ad"
    },
    {
      "id": 114,
      "outputModuleId": 31,
      "outputId": 10,
      "inputModuleId": 55,
      "inputId": 1,
      "color": "#c9b70e"
    },
    {
      "id": 115,
      "outputModuleId": 31,
      "outputId": 11,
      "inputModuleId": 58,
      "inputId": 1,
      "color": "#0c8e15"
    },
    {
      "id": 116,
      "outputModuleId": 31,
      "outputId": 0,
      "inputModuleId": 32,
      "inputId": 2,
      "color": "#c91847"
    },
    {
      "id": 70,
      "outputModuleId": 61,
      "outputId": 0,
      "inputModuleId": 60,
      "inputId": 1,
      "color": "#c91847"
    },
    {
      "id": 71,
      "outputModuleId": 61,
      "outputId": 0,
      "inputModuleId": 60,
      "inputId": 0,
      "color": "#0986ad"
    },
    {
      "id": 16,
      "outputModuleId": 59,
      "outputId": 7,
      "inputModuleId": 33,
      "inputId": 1,
      "color": "#c9b70e"
    },
    {
      "id": 17,
      "outputModuleId": 59,
      "outputId": 6,
      "inputModuleId": 36,
      "inputId": 1,
      "color": "#0c8e15"
    },
    {
      "id": 18,
      "outputModuleId": 59,
      "outputId": 5,
      "inputModuleId": 39,
      "inputId": 1,
      "color": "#c91847"
    },
    {
      "id": 19,
      "outputModuleId": 59,
      "outputId": 4,
      "inputModuleId": 42,
      "inputId": 1,
      "color": "#0986ad"
    },
    {
      "id": 23,
      "outputModuleId": 59,
      "outputId": 0,
      "inputModuleId": 56,
      "inputId": 1,
      "color": "#0986ad"
    },
    {
      "id": 22,
      "outputModuleId": 59,
      "outputId": 1,
      "inputModuleId": 53,
      "inputId": 1,
      "color": "#c91847"
    },
    {
      "id": 21,
      "outputModuleId": 59,
      "outputId": 2,
      "inputModuleId": 49,
      "inputId": 1,
      "color": "#0c8e15"
    },
    {
      "id": 20,
      "outputModuleId": 59,
      "outputId": 3,
      "inputModuleId": 46,
      "inputId": 1,
      "color": "#c9b70e"
    },
    {
      "id": 118,
      "outputModuleId": 31,
      "outputId": 4,
      "inputModuleId": 35,
      "inputId": 3,
      "color": "#0c8e15"
    },
    {
      "id": 119,
      "outputModuleId": 31,
      "outputId": 5,
      "inputModuleId": 38,
      "inputId": 3,
      "color": "#c91847"
    },
    {
      "id": 120,
      "outputModuleId": 31,
      "outputId": 6,
      "inputModuleId": 41,
      "inputId": 3,
      "color": "#0986ad"
    },
    {
      "id": 121,
      "outputModuleId": 31,
      "outputId": 7,
      "inputModuleId": 44,
      "inputId": 3,
      "color": "#c9b70e"
    },
    {
      "id": 122,
      "outputModuleId": 31,
      "outputId": 8,
      "inputModuleId": 48,
      "inputId": 3,
      "color": "#0c8e15"
    },
    {
      "id": 123,
      "outputModuleId": 31,
      "outputId": 9,
      "inputModuleId": 52,
      "inputId": 3,
      "color": "#c91847"
    },
    {
      "id": 124,
      "outputModuleId": 31,
      "outputId": 10,
      "inputModuleId": 55,
      "inputId": 3,
      "color": "#0986ad"
    },
    {
      "id": 125,
      "outputModuleId": 31,
      "outputId": 11,
      "inputModuleId": 58,
      "inputId": 3,
      "color": "#c9b70e"
    },
    {
      "id": 26,
      "outputModuleId": 40,
      "outputId": 0,
      "inputModuleId": 45,
      "inputId": 3,
      "color": "#c91847"
    },
    {
      "id": 184,
      "outputModuleId": 37,
      "outputId": 0,
      "inputModuleId": 64,
      "inputId": 1,
      "color": "#c91847"
    }
  ]
}